<svg xmlns="http://www.w3.org/2000/svg" viewBox="0 0 600 600" width="600" height="600">
  <defs>
    <linearGradient id="bg40" x1="0%" y1="0%" x2="100%" y2="100%">
      <stop offset="0%" stop-color="#FFE8D6" />
      <stop offset="100%" stop-color="#FFB4A2" />
    </linearGradient>
    
  </defs>
  <rect width="600" height="600" fill="url(#bg40)" />
  
  <g><path d="M 300 300 Q 239.30327815689196 210.1600690013846 203.58155786979825 79.19607314934501 Q 275.3605074209884 194.41496010426272 300 300 Z" fill="#E8B4B8" opacity="0.88"  /><path d="M 300 300 Q 303.70190703403614 191.64133108677018 351.7811335965904 64.69253241994949 Q 342.12756108423105 200.09717801067887 300 300 Z" fill="#D4A5A5" opacity="0.88"  /><path d="M 300 300 Q 366.6865332473707 214.51192172131294 480.20207626548404 140.0684464994693 Q 392.80331827643465 243.93887834498523 300 300 Z" fill="#C97B7B" opacity="0.88"  /><path d="M 300 300 Q 404.1991703521096 270.0360526254026 539.7919506442636 276.5327781426196 Q 408.0313621558147 309.1940217040646 300 300 Z" fill="#F6E3E1" opacity="0.88"  /><path d="M 300 300 Q 401.911265981883 337.0053929894752 507.78945010557175 421.9607909137546 Q 381.99509754262255 370.93736126549544 300 300 Z" fill="#E8B4B8" opacity="0.88"  /><path d="M 300 300 Q 360.69672184310804 389.8399309986154 396.41844213020175 520.803926850655 Q 324.6394925790117 405.5850398957373 300 300 Z" fill="#D4A5A5" opacity="0.88"  /><path d="M 300 300 Q 296.29809296596386 408.35866891322985 248.21886640340963 535.3074675800506 Q 257.87243891576907 399.9028219893212 300 300 Z" fill="#C97B7B" opacity="0.88"  /><path d="M 300 300 Q 233.3134667526294 385.4880782786871 119.79792373451593 459.93155350053075 Q 207.19668172356523 356.06112165501463 300 300 Z" fill="#F6E3E1" opacity="0.88"  /><path d="M 300 300 Q 195.8008296478904 329.9639473745974 60.20804935573642 323.4672218573804 Q 191.9686378441853 290.8059782959355 300 300 Z" fill="#E8B4B8" opacity="0.88"  /><path d="M 300 300 Q 198.088734018117 262.99460701052476 92.21054989442834 178.03920908624525 Q 218.00490245737737 229.06263873450462 300 300 Z" fill="#D4A5A5" opacity="0.88"  /></g>
  <polygon fill="#F6E3E1" points="300,266 334,300 300,334 266,300" />
  
</svg>