<svg xmlns="http://www.w3.org/2000/svg" viewBox="0 0 600 600" width="600" height="600">
  <defs>
    <linearGradient id="bg44" x1="0%" y1="0%" x2="100%" y2="100%">
      <stop offset="0%" stop-color="#021C34" />
      <stop offset="100%" stop-color="#04516E" />
    </linearGradient>
    
  </defs>
  <rect width="600" height="600" fill="url(#bg44)" />
  <circle cx="313.2" cy="377.2" r="1.9" fill="#FFFFFF" opacity="0.5" /><circle cx="56.6" cy="348.1" r="1.1" fill="#FFFFFF" opacity="0.5" /><circle cx="552.1" cy="284.0" r="1.2" fill="#FFFFFF" opacity="0.5" /><circle cx="562.0" cy="244.8" r="2.2" fill="#FFFFFF" opacity="0.5" /><circle cx="192.3" cy="586.9" r="1.4" fill="#FFFFFF" opacity="0.5" /><circle cx="534.4" cy="161.5" r="2.4" fill="#FFFFFF" opacity="0.5" /><circle cx="403.3" cy="434.9" r="2.8" fill="#FFFFFF" opacity="0.5" /><circle cx="418.3" cy="456.9" r="1.3" fill="#FFFFFF" opacity="0.5" /><circle cx="343.8" cy="393.2" r="2.0" fill="#FFFFFF" opacity="0.5" /><circle cx="301.2" cy="-10.9" r="1.7" fill="#FFFFFF" opacity="0.5" /><circle cx="329.7" cy="406.7" r="2.8" fill="#FFFFFF" opacity="0.5" /><circle cx="246.3" cy="333.4" r="2.9" fill="#FFFFFF" opacity="0.5" /><circle cx="181.2" cy="319.1" r="1.7" fill="#FFFFFF" opacity="0.5" /><circle cx="461.5" cy="218.6" r="2.5" fill="#FFFFFF" opacity="0.5" /><circle cx="440.7" cy="544.6" r="1.3" fill="#FFFFFF" opacity="0.5" /><circle cx="239.7" cy="363.5" r="2.1" fill="#FFFFFF" opacity="0.5" /><circle cx="183.8" cy="343.2" r="1.4" fill="#FFFFFF" opacity="0.5" /><circle cx="559.9" cy="129.8" r="2.4" fill="#FFFFFF" opacity="0.5" /><circle cx="242.7" cy="414.0" r="1.2" fill="#FFFFFF" opacity="0.5" /><circle cx="537.1" cy="230.5" r="1.4" fill="#FFFFFF" opacity="0.5" /><circle cx="559.1" cy="482.8" r="2.4" fill="#FFFFFF" opacity="0.5" /><circle cx="315.7" cy="532.9" r="1.4" fill="#FFFFFF" opacity="0.5" /><circle cx="65.2" cy="356.2" r="1.3" fill="#FFFFFF" opacity="0.5" /><circle cx="578.0" cy="435.9" r="1.5" fill="#FFFFFF" opacity="0.5" />
  <g><path d="M 300 300 Q 400.13388194765906 376.9099232568581 477.7789690578641 517.0719268271329 Q 355.6676905768151 413.3271319460944 300 300 Z" fill="#2E7D32" opacity="0.88"  /><path d="M 300 300 Q 257.7973875533663 418.99945425069296 148.4890521676485 536.1567613740153 Q 209.42175511546822 387.96312956529755 300 300 Z" fill="#66BB6A" opacity="0.88"  /><path d="M 300 300 Q 173.78346914628196 296.63578411275824 28.58211551403042 228.88097837510682 Q 188.35187544323296 241.03707188207017 300 300 Z" fill="#A5D6A7" opacity="0.88"  /><path d="M 300 300 Q 264.1965064369361 178.92134598549927 283.7654700654295 19.889266015162036 Q 321.575909128268 175.59577678160497 300 300 Z" fill="#1B5E20" opacity="0.88"  /><path d="M 300 300 Q 404.08875491575645 228.53349239419128 561.3843931950275 198.00106740858314 Q 424.98276973621574 282.0768898249328 300 300 Z" fill="#2E7D32" opacity="0.88"  /></g>
  <polygon fill="#1B5E20" points="300,266 334,300 300,334 266,300" />
  
</svg>