<svg xmlns="http://www.w3.org/2000/svg" viewBox="0 0 600 600" width="600" height="600">
  <defs>
    <linearGradient id="bg47" x1="0%" y1="0%" x2="100%" y2="100%">
      <stop offset="0%" stop-color="#D9F2E6" />
      <stop offset="100%" stop-color="#8FD9C4" />
    </linearGradient>
    
  </defs>
  <rect width="600" height="600" fill="url(#bg47)" />
  
  <g><path d="M 300 300 Q 329.3862695877034 409.80431659323824 286.9395956059193 552.258925521295 Q 259.43127213409684 406.1824802033347 300 300 Z" fill="#4FC3F7" opacity="0.88"  /><path d="M 300 300 Q 232.47356777912415 391.43698231191104 94.63300134603318 447.06983216131306 Q 191.68900599172173 334.4857848936049 300 300 Z" fill="#0288D1" opacity="0.88"  /><path d="M 300 300 Q 186.40964672105446 304.2157353751897 56.971945795911694 231.1341555060136 Q 205.5071274792154 236.8205901771786 300 300 Z" fill="#B3E5FC" opacity="0.88"  /><path d="M 300 300 Q 225.88157850296918 213.8199537156207 202.31597193032547 67.05586436190706 Q 290.48030927818513 186.73077968242973 300 300 Z" fill="#01579B" opacity="0.88"  /><path d="M 300 300 Q 321.1661934124139 188.319504660762 421.2180635922399 78.38925854768934 Q 382.6220123569831 221.93500235783125 300 300 Z" fill="#4FC3F7" opacity="0.88"  /><path d="M 300 300 Q 400.51223297064996 246.9167464632859 548.8404809713243 256.6000610823566 Q 412.54765494906525 315.9237604935337 300 300 Z" fill="#0288D1" opacity="0.88"  /><path d="M 300 300 Q 404.1705110260849 345.48676087999235 489.0809407582462 467.49190281942526 Q 357.7226178107327 397.9216021920871 300 300 Z" fill="#B3E5FC" opacity="0.88"  /></g>
  <polygon fill="#01579B" points="300,266 334,300 300,334 266,300" />
  
</svg>