<svg xmlns="http://www.w3.org/2000/svg" viewBox="0 0 600 600" width="600" height="600">
  <defs>
    <linearGradient id="bg63" x1="0%" y1="0%" x2="100%" y2="100%">
      <stop offset="0%" stop-color="#021C34" />
      <stop offset="100%" stop-color="#04516E" />
    </linearGradient>
    
  </defs>
  <rect width="600" height="600" fill="url(#bg63)" />
  
  <g><path d="M 300 300 Q 211.6878954144216 318.11356582332 99.6735551778873 298.1871883664124 Q 212.03016081058271 280.29120815072764 300 300 Z" fill="#4FC3F7" opacity="0.88"  /><path d="M 300 300 Q 220.705827343604 257.1098698310725 147.7062929910057 169.84394909746052 Q 245.27976072948013 228.3562668662015 300 300 Z" fill="#0288D1" opacity="0.88"  /><path d="M 300 300 Q 266.82638391528053 216.17494241556693 266.9989488696531 102.40217256918518 Q 304.133568750772 209.9442245463817 300 300 Z" fill="#B3E5FC" opacity="0.88"  /><path d="M 300 300 Q 328.46924413667256 214.46269105556092 401.73316333801927 127.41861555102261 Q 361.0532340140782 233.67028041976894 300 300 Z" fill="#01579B" opacity="0.88"  /><path d="M 300 300 Q 376.7910286261106 252.77429719195544 488.8653000423568 233.18780634497637 Q 389.40541255108235 288.4327492574662 300 300 Z" fill="#4FC3F7" opacity="0.88"  /><path d="M 300 300 Q 389.1814373841722 313.1833345274574 487.6252638528727 370.2191650849377 Q 375.92380492495454 348.60766327326724 300 300 Z" fill="#0288D1" opacity="0.88"  /><path d="M 300 300 Q 359.842860448906 367.42374312111906 398.5932814840936 474.39419608256503 Q 326.91660517533916 386.0385114295034 300 300 Z" fill="#B3E5FC" opacity="0.88"  /><path d="M 300 300 Q 302.50314403028545 390.1158329769721 263.4284069666375 496.968244557563 Q 265.3148267194376 383.21098387633236 300 300 Z" fill="#01579B" opacity="0.88"  /><path d="M 300 300 Q 243.99217870054736 370.64172305697576 145.3757872774742 427.37866234587693 Q 219.94262632427342 341.4481121803511 300 300 Z" fill="#4FC3F7" opacity="0.88"  /></g>
  <circle fill="#01579B" cx="300" cy="300" r="34" />
  
</svg>